# xmcd
# 
# Track frame offsets:
#     150
#     15585
#     38367
#     77177
#     99947
#     135942
#     185092
#     228392
#     257227
# 
# Disc length: 3728
# 
# Revision: 0
# Processed by: cddbd v1.5.2PL0 Copyright (c) Steve Scherf et al.
# Submitted via: BonkEnc v1.0.8
# 
DISCID=640e8e09
DTITLE=Various Artist - ８・８ ROCK DAY の軌跡 ～ブルース篇～
DYEAR=1974
DGENRE=Blues
TTITLE0=ウェスト・ロード・ブルースバンド - Just a little bid
TTITLE1=ウェスト・ロード・ブルースバンド - Ain't Nobody Business
TTITLE2=ウェスト・ロード・ブルースバンド - Walking the Back Street
TTITLE3=ファッツ・ボトル・ブルースバンド - ユー・ビロング・トゥー・ミー
TTITLE4=ファッツ・ボトル・ブルースバンド - ギャンブラーズ・ブルース
TTITLE5=山岸潤史スーパーグループ with 北京一 - かたつむり
TTITLE6=山岸潤史スーパーグループ with 北京一・石田長生 - ストーン・ジャンキー
TTITLE7=入道Sets - カリフォルニア
TTITLE8=ホトケSet. - ジャスト・ア・リトル・ビット
EXTD=
EXTT0=
EXTT1=
EXTT2=
EXTT3=
EXTT4=
EXTT5=
EXTT6=
EXTT7=
EXTT8=
PLAYORDER=
